<?xml version="1.0" encoding="UTF-8"?>
<svg id="Capa_1" data-name="Capa 1" xmlns="http://www.w3.org/2000/svg" xmlns:xlink="http://www.w3.org/1999/xlink" viewBox="0 0 35.16 37.25">
  <defs>
    <style>
      .cls-1 {
        fill: #00633a;
      }

      .cls-2 {
        clip-path: url(#clippath);
      }

      .cls-3 {
        fill: none;
      }
    </style>
    <clipPath id="clippath">
      <rect class="cls-3" y="0" width="35.16" height="37.25"/>
    </clipPath>
  </defs>
  <g class="cls-2">
    <path class="cls-1" d="m26.17,14.84h-15.57v1.16h15.57v-1.16Zm-11.44-3.62h7.34v-1.16h-7.34v1.16Zm11.44,7.75h-15.57v1.16h15.57v-1.16Zm0,4.11h-4.68v1.16h4.68v-1.16Zm7.8,10.62c0,1.31-1.07,2.38-2.38,2.38H12.37l.15-.18c.51-.62.8-1.4.81-2.2v-.11h20.65v.11Zm1.19-1.18H12.19v1.12c0,1.36-1.11,2.47-2.47,2.47s-2.47-1.11-2.47-2.47V3.61c-.02-.8-.31-1.58-.82-2.2l-.15-.18h20.66c1.31,0,2.38,1.07,2.38,2.38v27.33h1.14V3.61c-.01-1.99-1.64-3.61-3.63-3.61H3.61C1.63.01.01,1.63,0,3.61v3.29h4.5v-1.14H1.16v-2.15c0-1.36,1.11-2.47,2.47-2.47s2.47,1.11,2.47,2.47v30.02c.01,1.98,1.63,3.6,3.61,3.61h21.83c1.98-.01,3.6-1.63,3.61-3.61v-1.12Z"/>
  </g>
</svg>