<?xml version="1.0" encoding="utf-8"?>
<!-- Generator: Adobe Illustrator 21.1.0, SVG Export Plug-In . SVG Version: 6.00 Build 0)  -->
<svg version="1.0" id="Capa_1" xmlns="http://www.w3.org/2000/svg" xmlns:xlink="http://www.w3.org/1999/xlink" x="0px" y="0px"
	 viewBox="0 0 425 425" style="enable-background:new 0 0 425 425;" xml:space="preserve">
<style type="text/css">
	
		.st0{clip-path:url(#SVGID_2_);fill:none;stroke:#1c752c;stroke-width:15;stroke-linecap:round;stroke-linejoin:round;stroke-miterlimit:10;}
</style>
<g>
	<g>
		<defs>
			<rect id="SVGID_1_" x="-0.5" y="0.5" width="425" height="425"/>
		</defs>
		<clipPath id="SVGID_2_">
			<use xlink:href="#SVGID_1_"  style="overflow:visible;"/>
		</clipPath>
		<path class="st0" d="M372.8,201.5v195.3H51.2V201.5 M395.8,201.5H28.2v-91.9h367.6V201.5L395.8,201.5z M117.4,109.6l-20-21.7
			c-12.3-13.4-12.3-34,0-47.4l0,0c13.8-15,37.6-15,51.4,0l63.5,68.9 M306.2,109.6l20-21.7c12.3-13.4,12.3-34,0-47.4l0,0
			c-13.8-15-37.6-15-51.4,0l-63,68.4 M212,396.8V109.6 M212,396.8V109.6"/>
	</g>
</g>
</svg>
