<?xml version="1.0" encoding="utf-8"?>
<!-- Generator: Adobe Illustrator 21.1.0, SVG Export Plug-In . SVG Version: 6.00 Build 0)  -->
<svg version="1.0" id="Capa_1" xmlns="http://www.w3.org/2000/svg" xmlns:xlink="http://www.w3.org/1999/xlink" x="0px" y="0px"
	 viewBox="0 0 425 425" style="enable-background:new 0 0 425 425;" xml:space="preserve">
<style type="text/css">
	.st0{fill:#A6A7A7;}
	.st1{clip-path:url(#SVGID_2_);fill:none;stroke:#A6A7A7;stroke-width:10;stroke-miterlimit:10;}
</style>
<g>
	<path class="st0" d="M231.9,259.6L231.9,259.6L231.9,259.6c0.1-0.1,0.2-0.1,0.3-0.1l0,0l0,0l0,0l0,0l0,0l0,0l0.1,0
		c2.8-0.9,8.6,0.2,13.9,4.5c3.5,2.8,6.9,7,9.2,12.9c3,7.7,17.6,31,35.6,48.3c10.9,10.5,22.9,18.6,34.1,19.2
		c27.4,1.6,32.9-32.9,36.1-52.5l0.3-2.1l0,0h0c3.2-19.9,19.6-35.2,33.5-48.1l0.2-0.2l3-2.8l0,0c4.6-4.3,7.4-14.2,7-24.8
		c-0.2-4.7-1-9.6-2.7-14.2c-1.6-4.5-4-8.7-7.4-12.3c-6.1-6.5-15.5-10.7-29-10.2c-41.7,1.6-67.5,9.3-77.2,12.3
		c-1.5,0.4-2.6,0.8-3.6,1c-7.8,1.9-11.3-5.4-11.8-6.5l0,0l0,0v0l0,0l0,0l0,0l0,0l0-0.1l0,0v0l0,0l0,0h0l0,0c-0.4-1-2.9-8.8,4.2-12.8
		c0.8-0.4,1.9-1,3.3-1.7c9.1-4.5,33.3-16.4,64.9-43.6c10.3-8.8,14.2-18.3,14.3-27.2c0-4.8-1.1-9.6-3-14c-1.9-4.5-4.6-8.6-7.7-12.2
		c-7-8.1-15.8-13.4-22.1-13.4l-4.3,0c-19,0-41.4-0.1-57.3-12.4v0l0,0l-1.7-1.3c-15.7-12.2-43.3-33.7-62.2-13.9
		c-7.7,8.1-11,22.2-11.8,37.3c-1.4,24.9,3.8,52,6.8,59.7l0,0c2.8,7.2,2.7,13.7,1.5,18.5c-1.3,5.1-4.2,8.8-6.5,9.9l0,0
		c-0.1,0.1-0.2,0.1-0.3,0.1l0,0l-0.1,0l-0.1,0c-9.9,3.7-19.1-10.5-30.7-28.6c-15.2-23.7-35.1-54.7-62.2-56.3
		c-27.4-1.6-32.9,32.9-36.1,52.5l-0.3,2.1v0l0,0c-3.2,19.9-19.6,35.2-33.5,48.1l-0.2,0.2l-3,2.8l0,0c-4.6,4.3-7.4,14.2-7,24.8
		c0.2,4.7,1,9.6,2.7,14.2c1.6,4.5,4,8.7,7.4,12.2c6.1,6.5,15.5,10.7,29,10.2c41.6-1.6,67.5-9.3,77.2-12.3c1.5-0.4,2.6-0.8,3.6-1
		c7.8-1.9,11.3,5.4,11.8,6.5l0,0l0,0v0l0,0l0,0l0,0l0,0l0,0.1l0,0l0,0l0,0l0,0l0,0l0,0c0.3,0.8,3,8.6-3.9,12.7l-0.2,0.1
		c-0.7,0.4-1.8,0.9-3.3,1.7c-9.1,4.5-33.3,16.4-64.9,43.6c-10.3,8.8-14.2,18.3-14.3,27.2c0,4.8,1.1,9.6,3,14
		c1.9,4.5,4.6,8.6,7.7,12.2c7,8.1,15.8,13.4,22.1,13.4l4.3,0c18.9,0,41.2,0.1,57.1,12.3l0.2,0.2l1.7,1.3l0,0l0,0
		c15.7,12.2,43.3,33.7,62.2,13.9c7.7-8.1,11-22.2,11.8-37.3c1.4-24.9-3.8-52-6.8-59.7v0c-2.8-7.2-2.7-13.7-1.5-18.5
		C226.8,264.4,229.6,260.7,231.9,259.6L231.9,259.6L231.9,259.6z M280.1,181.2L280.1,181.2L280.1,181.2L280.1,181.2L280.1,181.2
		c0.2,0.5,1.5,3.1,3.9,2.5c0.5-0.1,1.7-0.5,3.2-0.9c9.9-3,36.3-10.9,79-12.5c15.8-0.6,26.8,4.5,34.2,12.4c4,4.2,6.9,9.3,8.8,14.6
		c1.9,5.3,2.9,10.8,3.1,16.3c0.5,12.6-3.3,24.5-9.2,30.1l0,0l0,0l-3,2.8l-0.2,0.2c-13.1,12.2-28.5,26.6-31.4,44.2l0,0l-0.3,2.1
		c-3.5,21.8-9.7,60.3-43.3,58.3c-13-0.8-26.5-9.7-38.4-21.2c-18.8-18-34.1-42.6-37.3-50.7c-1.8-4.6-4.5-7.9-7.1-10.1
		c-1.4-1.1-2.7-1.9-3.8-2.5c7.3,22.8,41.4,117.6,111.3,136.8c1.8,0.5,2.9,2.4,2.4,4.2c-0.5,1.8-2.4,2.9-4.2,2.4
		c-71.5-19.7-106.9-113.6-115.4-139.8c-0.1,0.3-0.2,0.5-0.2,0.8c-0.9,3.7-1,8.7,1.2,14.3l0,0c3.2,8.2,8.7,36.6,7.2,62.5
		c-0.9,16.5-4.7,32.2-13.7,41.6c-23.2,24.3-53.9,0.4-71.4-13.2l0,0l-1.7-1.3l-0.1-0.1c-14.1-10.8-35.1-10.9-53-10.9l-4.3,0h0
		c-8.1-0.1-19-6.2-27.2-15.8c-3.5-4.1-6.6-8.9-8.8-14c-2.2-5.2-3.5-10.9-3.5-16.7c0.1-10.8,4.7-22.1,16.6-32.4
		c32.3-27.8,57-40,66.3-44.6c1.3-0.7,2.4-1.2,3-1.5l0.1-0.1c1.9-1.2,1.1-3.9,1-4.4l0,0l0,0l0,0l0,0l0,0c-0.2-0.5-1.5-3.1-3.8-2.5
		c-0.5,0.1-1.7,0.5-3.2,0.9c-9.9,3-36.3,10.9-78.9,12.5c-15.8,0.6-26.8-4.5-34.2-12.4c-4-4.2-6.9-9.3-8.8-14.6
		c-1.9-5.3-2.9-10.9-3.1-16.3c-0.5-12.6,3.3-24.5,9.2-30.1l0,0l0,0l3-2.8l0.2-0.2c13.1-12.2,28.5-26.6,31.4-44.2l0,0l0.3-2.1
		c3.5-21.8,9.7-60.3,43.3-58.3c30.6,1.8,51.6,34.5,67.6,59.4c9.9,15.5,17.8,27.7,22.6,25.9l0,0c0.7-0.3,1.9-2.2,2.7-5.3
		c0.9-3.7,1-8.7-1.2-14.3l0,0c-3.2-8.2-8.7-36.6-7.2-62.5c0.9-16.5,4.7-32.2,13.7-41.6c23.2-24.3,53.9-0.4,71.4,13.2l1.6,1.3l0,0
		c14.1,10.9,35.2,11,53.1,11l4.3,0h0c8.1,0,19,6.2,27.2,15.8c3.5,4.1,6.6,8.9,8.8,14c2.2,5.2,3.5,10.9,3.5,16.7
		c-0.1,10.8-4.7,22.1-16.6,32.4c-32.3,27.8-57,40-66.4,44.6c-1.4,0.7-2.5,1.2-3,1.5C279.1,177.9,279.9,180.7,280.1,181.2
		L280.1,181.2z"/>
	<g>
		<defs>
			<rect id="SVGID_1_" x="-0.5" y="0.5" width="425" height="425"/>
		</defs>
		<clipPath id="SVGID_2_">
			<use xlink:href="#SVGID_1_"  style="overflow:visible;"/>
		</clipPath>
		<path class="st1" d="M231.9,259.6L231.9,259.6L231.9,259.6c0.1-0.1,0.2-0.1,0.3-0.1l0,0l0,0l0,0l0,0l0,0l0,0l0.1,0
			c2.8-0.9,8.6,0.2,13.9,4.5c3.5,2.8,6.9,7,9.2,12.9c3,7.7,17.6,31,35.6,48.3c10.9,10.5,22.9,18.6,34.1,19.2
			c27.4,1.6,32.9-32.9,36.1-52.5l0.3-2.1l0,0h0c3.2-19.9,19.6-35.2,33.5-48.1l0.2-0.2l3-2.8l0,0c4.6-4.3,7.4-14.2,7-24.8
			c-0.2-4.7-1-9.6-2.7-14.2c-1.6-4.5-4-8.7-7.4-12.3c-6.1-6.5-15.5-10.7-29-10.2c-41.7,1.6-67.5,9.3-77.2,12.3
			c-1.5,0.4-2.6,0.8-3.6,1c-7.8,1.9-11.3-5.4-11.8-6.5l0,0l0,0v0l0,0l0,0l0,0l0,0l0-0.1l0,0v0l0,0l0,0h0l0,0
			c-0.4-1-2.9-8.8,4.2-12.8c0.8-0.4,1.9-1,3.3-1.7c9.1-4.5,33.3-16.4,64.9-43.6c10.3-8.8,14.2-18.3,14.3-27.2c0-4.8-1.1-9.6-3-14
			c-1.9-4.5-4.6-8.6-7.7-12.2c-7-8.1-15.8-13.4-22.1-13.4l-4.3,0c-19,0-41.4-0.1-57.3-12.4v0l0,0l-1.7-1.3
			c-15.7-12.2-43.3-33.7-62.2-13.9c-7.7,8.1-11,22.2-11.8,37.3c-1.4,24.9,3.8,52,6.8,59.7l0,0c2.8,7.2,2.7,13.7,1.5,18.5
			c-1.3,5.1-4.2,8.8-6.5,9.9l0,0c-0.1,0.1-0.2,0.1-0.3,0.1l0,0l-0.1,0l-0.1,0c-9.9,3.7-19.1-10.5-30.7-28.6
			c-15.2-23.7-35.1-54.7-62.2-56.3c-27.4-1.6-32.9,32.9-36.1,52.5l-0.3,2.1v0l0,0c-3.2,19.9-19.6,35.2-33.5,48.1l-0.2,0.2l-3,2.8
			l0,0c-4.6,4.3-7.4,14.2-7,24.8c0.2,4.7,1,9.6,2.7,14.2c1.6,4.5,4,8.7,7.4,12.2c6.1,6.5,15.5,10.7,29,10.2
			c41.6-1.6,67.5-9.3,77.2-12.3c1.5-0.4,2.6-0.8,3.6-1c7.8-1.9,11.3,5.4,11.8,6.5l0,0l0,0v0l0,0l0,0l0,0l0,0l0,0.1l0,0l0,0l0,0l0,0
			l0,0l0,0c0.3,0.8,3,8.6-3.9,12.7l-0.2,0.1c-0.7,0.4-1.8,0.9-3.3,1.7c-9.1,4.5-33.3,16.4-64.9,43.6c-10.3,8.8-14.2,18.3-14.3,27.2
			c0,4.8,1.1,9.6,3,14c1.9,4.5,4.6,8.6,7.7,12.2c7,8.1,15.8,13.4,22.1,13.4l4.3,0c18.9,0,41.2,0.1,57.1,12.3l0.2,0.2l1.7,1.3l0,0
			l0,0c15.7,12.2,43.3,33.7,62.2,13.9c7.7-8.1,11-22.2,11.8-37.3c1.4-24.9-3.8-52-6.8-59.7v0c-2.8-7.2-2.7-13.7-1.5-18.5
			C226.8,264.4,229.6,260.7,231.9,259.6L231.9,259.6L231.9,259.6z M280.1,181.2L280.1,181.2L280.1,181.2L280.1,181.2L280.1,181.2
			c0.2,0.5,1.5,3.1,3.9,2.5c0.5-0.1,1.7-0.5,3.2-0.9c9.9-3,36.3-10.9,79-12.5c15.8-0.6,26.8,4.5,34.2,12.4c4,4.2,6.9,9.3,8.8,14.6
			c1.9,5.3,2.9,10.8,3.1,16.3c0.5,12.6-3.3,24.5-9.2,30.1l0,0l0,0l-3,2.8l-0.2,0.2c-13.1,12.2-28.5,26.6-31.4,44.2l0,0l-0.3,2.1
			c-3.5,21.8-9.7,60.3-43.3,58.3c-13-0.8-26.5-9.7-38.4-21.2c-18.8-18-34.1-42.6-37.3-50.7c-1.8-4.6-4.5-7.9-7.1-10.1
			c-1.4-1.1-2.7-1.9-3.8-2.5c7.3,22.8,41.4,117.6,111.3,136.8c1.8,0.5,2.9,2.4,2.4,4.2c-0.5,1.8-2.4,2.9-4.2,2.4
			c-71.5-19.7-106.9-113.6-115.4-139.8c-0.1,0.3-0.2,0.5-0.2,0.8c-0.9,3.7-1,8.7,1.2,14.3l0,0c3.2,8.2,8.7,36.6,7.2,62.5
			c-0.9,16.5-4.7,32.2-13.7,41.6c-23.2,24.3-53.9,0.4-71.4-13.2l0,0l-1.7-1.3l-0.1-0.1c-14.1-10.8-35.1-10.9-53-10.9l-4.3,0h0
			c-8.1-0.1-19-6.2-27.2-15.8c-3.5-4.1-6.6-8.9-8.8-14c-2.2-5.2-3.5-10.9-3.5-16.7c0.1-10.8,4.7-22.1,16.6-32.4
			c32.3-27.8,57-40,66.3-44.6c1.3-0.7,2.4-1.2,3-1.5l0.1-0.1c1.9-1.2,1.1-3.9,1-4.4l0,0l0,0l0,0l0,0l0,0c-0.2-0.5-1.5-3.1-3.8-2.5
			c-0.5,0.1-1.7,0.5-3.2,0.9c-9.9,3-36.3,10.9-78.9,12.5c-15.8,0.6-26.8-4.5-34.2-12.4c-4-4.2-6.9-9.3-8.8-14.6
			c-1.9-5.3-2.9-10.9-3.1-16.3c-0.5-12.6,3.3-24.5,9.2-30.1l0,0l0,0l3-2.8l0.2-0.2c13.1-12.2,28.5-26.6,31.4-44.2l0,0l0.3-2.1
			c3.5-21.8,9.7-60.3,43.3-58.3c30.6,1.8,51.6,34.5,67.6,59.4c9.9,15.5,17.8,27.7,22.6,25.9l0,0c0.7-0.3,1.9-2.2,2.7-5.3
			c0.9-3.7,1-8.7-1.2-14.3l0,0c-3.2-8.2-8.7-36.6-7.2-62.5c0.9-16.5,4.7-32.2,13.7-41.6c23.2-24.3,53.9-0.4,71.4,13.2l1.6,1.3l0,0
			c14.1,10.9,35.2,11,53.1,11l4.3,0h0c8.1,0,19,6.2,27.2,15.8c3.5,4.1,6.6,8.9,8.8,14c2.2,5.2,3.5,10.9,3.5,16.7
			c-0.1,10.8-4.7,22.1-16.6,32.4c-32.3,27.8-57,40-66.4,44.6c-1.4,0.7-2.5,1.2-3,1.5C279.1,177.9,279.9,180.7,280.1,181.2
			L280.1,181.2z"/>
	</g>
</g>
</svg>
