<?xml version="1.0" encoding="utf-8"?>
<!-- Generator: Adobe Illustrator 21.1.0, SVG Export Plug-In . SVG Version: 6.00 Build 0)  -->
<svg version="1.0" id="Capa_1" xmlns="http://www.w3.org/2000/svg" xmlns:xlink="http://www.w3.org/1999/xlink" x="0px" y="0px"
	 viewBox="0 0 425 425" style="enable-background:new 0 0 425 425;" xml:space="preserve">
<style type="text/css">
	.st0{clip-path:url(#SVGID_2_);fill:#666;}
	.st1{clip-path:url(#SVGID_2_);fill:none;stroke:#666;stroke-width:6.04;stroke-miterlimit:10;}
</style>
<g>
	<defs>
		<rect id="SVGID_1_" width="425" height="425"/>
	</defs>
	<clipPath id="SVGID_2_">
		<use xlink:href="#SVGID_1_"  style="overflow:visible;"/>
	</clipPath>
	<path class="st0" d="M332.2,138.2c-2.6-1.5-6-0.7-7.6,2c-1.5,2.6-0.7,6,2,7.6c20.7,12.1,29.6,33.7,24.2,59
		c-1.6,7.6-4.4,15.3-8.2,22.8c-1.4,2.7-0.3,6.1,2.4,7.4c0.8,0.4,1.7,0.6,2.5,0.6c2,0,4-1.1,4.9-3c4.3-8.4,7.3-17,9.1-25.5
		C368.1,178.7,357.4,152.8,332.2,138.2"/>
	<path class="st1" d="M332.2,138.2c-2.6-1.5-6-0.7-7.6,2c-1.5,2.6-0.7,6,2,7.6c20.7,12.1,29.6,33.7,24.2,59
		c-1.6,7.6-4.4,15.3-8.2,22.8c-1.4,2.7-0.3,6.1,2.4,7.4c0.8,0.4,1.7,0.6,2.5,0.6c2,0,4-1.1,4.9-3c4.3-8.4,7.3-17,9.1-25.5
		C368.1,178.7,357.4,152.8,332.2,138.2z"/>
	<path class="st0" d="M380.4,207c-11.4,54-63.2,111.2-110.2,101.3c-19.7-4.1-36.6-19.9-48.3-44.3c30.1-34.8,44.5-92.2,36.7-140.6
		c-0.7-4.3-1.6-8.4-2.6-12.5c10.3-4.4,21.9-6.9,34.2-6.9c7.3,0,14.8,0.8,22.4,2.4c23.9,5,43.8,17,56,33.8
		C381.7,158.4,385.8,181.4,380.4,207 M254.4,332.8l7.6-15.3c1.9,0.6,3.9,1.3,5.9,1.7c2,0.4,4.1,0.7,6.1,1l0.8,17
		C268,339,259.8,337.3,254.4,332.8 M168.6,283.8c-56.4,9-114.3-61.5-124.7-126c-4.9-30.5,1.3-57.6,17.9-78.3
		c15.4-19.2,39.6-32.2,68.2-36.8c7-1.1,13.9-1.7,20.7-1.7c20.8,0,40,5.3,55.6,15.4c22.2,14.4,36.5,38.2,41.4,68.8
		C258,189.7,225,274.8,168.6,283.8 M160.4,317l2-21.5c2.6-0.1,5.3-0.4,7.9-0.8c2.6-0.4,5.2-1,7.8-1.7l8.6,19.8
		C179.7,318.5,168.9,320.2,160.4,317 M377.5,133.8c-13.8-19-36-32.5-62.6-38.1c-22.2-4.7-43.8-2.9-62.1,4.6
		c-7.9-22.8-21.6-40.9-40.5-53.2c-22.9-14.9-52.8-20.3-84-15.3c-31.3,5-58,19.5-75.1,40.8C34.6,95.8,27.6,125.9,33,159.6
		C43.2,223.4,94.8,290,151.3,295.3l-2.3,24.5c-0.2,2.1,0.9,4.2,2.8,5.3c4.8,2.7,10.1,4.1,15.6,4.5c2.5,5.8,6,10.7,9.4,15.1
		c8.9,11.8,14.8,19.6-4.2,41c-2,2.3-1.8,5.8,0.5,7.8c1.1,0.9,2.4,1.4,3.7,1.4c1.5,0,3-0.6,4.1-1.9c25-28.2,14.2-42.5,4.7-55
		c-2.3-3.1-4.6-6.2-6.4-9.5c7-1.8,13.6-5.3,18.4-10.8c1.4-1.6,1.8-3.9,0.9-5.9l-9.9-22.6c9.1-4,17.5-9.7,25.1-16.8
		c9.8,19,22.8,33,38,40.8l-9,18.1c-1,1.9-0.7,4.3,0.7,6c3.1,3.8,7.2,6.8,11.7,8.8c0.3,2.7,0.7,5.2,1.2,7.6
		c2,10.7,3.4,17.8-12.3,31.6c-2.3,2-2.5,5.5-0.5,7.8c1.1,1.3,2.6,1.9,4.2,1.9c1.3,0,2.6-0.5,3.7-1.4c20.4-18,18.1-30.2,15.9-42
		c-0.2-0.9-0.4-1.9-0.5-2.8c0.7,0,1.4,0.1,2.2,0.1c4.9,0,9.8-1.1,14.2-3.3c1.9-1,3.1-3,3-5.2l-0.9-20.1
		c48.3-2.8,94.8-57.3,106.2-111.1C397.2,180.6,392.5,154.5,377.5,133.8"/>
	<path class="st1" d="M380.4,207c-11.4,54-63.2,111.2-110.2,101.3c-19.7-4.1-36.6-19.9-48.3-44.3c30.1-34.8,44.5-92.2,36.7-140.6
		c-0.7-4.3-1.6-8.4-2.6-12.5c10.3-4.4,21.9-6.9,34.2-6.9c7.3,0,14.8,0.8,22.4,2.4c23.9,5,43.8,17,56,33.8
		C381.7,158.4,385.8,181.4,380.4,207z M254.4,332.8l7.6-15.3c1.9,0.6,3.9,1.3,5.9,1.7c2,0.4,4.1,0.7,6.1,1l0.8,17
		C268,339,259.8,337.3,254.4,332.8z M168.6,283.8c-56.4,9-114.3-61.5-124.7-126c-4.9-30.5,1.3-57.6,17.9-78.3
		c15.4-19.2,39.6-32.2,68.2-36.8c7-1.1,13.9-1.7,20.7-1.7c20.8,0,40,5.3,55.6,15.4c22.2,14.4,36.5,38.2,41.4,68.8
		C258,189.7,225,274.8,168.6,283.8z M160.4,317l2-21.5c2.6-0.1,5.3-0.4,7.9-0.8c2.6-0.4,5.2-1,7.8-1.7l8.6,19.8
		C179.7,318.5,168.9,320.2,160.4,317z M377.5,133.8c-13.8-19-36-32.5-62.6-38.1c-22.2-4.7-43.8-2.9-62.1,4.6
		c-7.9-22.8-21.6-40.9-40.5-53.2c-22.9-14.9-52.8-20.3-84-15.3c-31.3,5-58,19.5-75.1,40.8C34.6,95.8,27.6,125.9,33,159.6
		C43.2,223.4,94.8,290,151.3,295.3l-2.3,24.5c-0.2,2.1,0.9,4.2,2.8,5.3c4.8,2.7,10.1,4.1,15.6,4.5c2.5,5.8,6,10.7,9.4,15.1
		c8.9,11.8,14.8,19.6-4.2,41c-2,2.3-1.8,5.8,0.5,7.8c1.1,0.9,2.4,1.4,3.7,1.4c1.5,0,3-0.6,4.1-1.9c25-28.2,14.2-42.5,4.7-55
		c-2.3-3.1-4.6-6.2-6.4-9.5c7-1.8,13.6-5.3,18.4-10.8c1.4-1.6,1.8-3.9,0.9-5.9l-9.9-22.6c9.1-4,17.5-9.7,25.1-16.8
		c9.8,19,22.8,33,38,40.8l-9,18.1c-1,1.9-0.7,4.3,0.7,6c3.1,3.8,7.2,6.8,11.7,8.8c0.3,2.7,0.7,5.2,1.2,7.6
		c2,10.7,3.4,17.8-12.3,31.6c-2.3,2-2.5,5.5-0.5,7.8c1.1,1.3,2.6,1.9,4.2,1.9c1.3,0,2.6-0.5,3.7-1.4c20.4-18,18.1-30.2,15.9-42
		c-0.2-0.9-0.4-1.9-0.5-2.8c0.7,0,1.4,0.1,2.2,0.1c4.9,0,9.8-1.1,14.2-3.3c1.9-1,3.1-3,3-5.2l-0.9-20.1
		c48.3-2.8,94.8-57.3,106.2-111.1C397.2,180.6,392.5,154.5,377.5,133.8z"/>
	<path class="st0" d="M164.8,71.1c-3-0.5-5.9,1.6-6.3,4.6c-0.5,3,1.5,5.9,4.6,6.3c28.3,4.7,47.3,24.9,52.2,55.4
		c1.5,9.1,1.7,18.7,0.7,28.8c-0.3,3,1.9,5.8,4.9,6.1c0.2,0,0.4,0,0.6,0c2.8,0,5.2-2.1,5.5-5c1.1-11,0.9-21.6-0.7-31.6
		C220.4,100.1,198.1,76.6,164.8,71.1"/>
	<path class="st1" d="M164.8,71.1c-3-0.5-5.9,1.6-6.3,4.6c-0.5,3,1.5,5.9,4.6,6.3c28.3,4.7,47.3,24.9,52.2,55.4
		c1.5,9.1,1.7,18.7,0.7,28.8c-0.3,3,1.9,5.8,4.9,6.1c0.2,0,0.4,0,0.6,0c2.8,0,5.2-2.1,5.5-5c1.1-11,0.9-21.6-0.7-31.6
		C220.4,100.1,198.1,76.6,164.8,71.1z"/>
</g>
</svg>
