<?xml version="1.0" encoding="UTF-8"?>
<svg id="Capa_1" data-name="Capa 1" xmlns="http://www.w3.org/2000/svg" viewBox="0 0 108.33 86.85">
  <defs>
    <style>
      .cls-1 {
        fill: #1c7633;
      }
    </style>
  </defs>
  <path class="cls-1" d="m35.43,20.51l10.25-8.45-1.01,5.79c-.16.9.44,1.75,1.34,1.91.1.02.19.02.29.02.79,0,1.48-.56,1.62-1.36l1.77-10.18c.08-.48-.05-.97-.36-1.34-.31-.37-.77-.59-1.26-.59h-10.28c-.91,0-1.65.74-1.65,1.65,0,.91.74,1.65,1.65,1.65h5.69s-10.14,8.36-10.14,8.36c-.7.58-.8,1.62-.22,2.32.33.39.8.6,1.27.6.37,0,.74-.12,1.05-.38h0Zm69.23,19.21V2c0-1.1-.9-2-2-2H5.27c-1.1,0-2,.9-2,2v30.37h4V4h93.38v30.49l-17.13-18.83c-3.55-3.55-9.35-3.56-12.94.03-1.14,1.14-1.91,2.5-2.31,3.95-3.57-2.74-8.73-2.47-12.02.83-1.13,1.14-1.91,2.5-2.32,3.95-3.57-2.73-8.73-2.46-12.02.83-1.11,1.11-1.88,2.44-2.29,3.86l-8.47-8.47c-3.56-3.56-9.35-3.56-12.94.03-3.56,3.55-3.56,9.35,0,12.91l32.53,32.53-19.3,3.03c-3.79.54-6.88,3.1-8.3,6.47H7.27v-21.39H3.27v23.39c0,1.1.9,2,2,2h17.04s0,.05,0,.08c0,3.95,3.22,7.17,7.17,7.17h45.06c7.02,0,13.62-2.73,18.58-7.7l7.52-7.52c4.96-4.96,7.69-11.55,7.69-18.56,0-4.74-1.29-9.34-3.67-13.36h0Zm-6.69-1.1c3.6,3.96,5.59,9.09,5.59,14.45,0,5.73-2.23,11.12-6.29,15.18l-7.52,7.52c-4.06,4.06-9.46,6.3-15.21,6.3H29.48c-1.32,0-2.39-1.07-2.39-2.39,0-2.91,2.17-5.4,5.08-5.82l23.97-3.76c.89-.14,1.62-.77,1.9-1.62.28-.85.05-1.79-.58-2.43L21.6,30.19c-1.7-1.7-1.7-4.46.02-6.18.85-.85,1.96-1.27,3.08-1.27s2.23.43,3.08,1.28l23.91,23.91c.93.93,2.45.93,3.38,0,.46-.47.7-1.08.7-1.69s-.23-1.22-.7-1.69l-9.76-9.76c-1.7-1.7-1.7-4.45.03-6.18,1.69-1.69,4.46-1.69,6.15,0l9.77,9.77c.93.93,2.45.93,3.38,0,.46-.47.7-1.08.7-1.69s-.23-1.22-.7-1.69l-4.98-4.99c-1.7-1.7-1.7-4.45.03-6.18,1.69-1.69,4.46-1.69,6.15,0l5.01,5.01s0,0,0,0h0s0,.01,0,.01h0s0,0,0,0c0,0,0,0,0,0,.94.89,2.42.87,3.33-.05.93-.93.93-2.45,0-3.38l-.21-.21c-.82-.82-1.28-1.92-1.28-3.08s.45-2.25,1.3-3.1c1.7-1.69,4.45-1.69,6.07-.08l17.89,19.66h0ZM3.71,35.72c-.9-.16-1.75.44-1.91,1.34L.02,47.23c-.08.48.05.97.36,1.34.31.37.77.59,1.26.59h10.28c.91,0,1.65-.74,1.65-1.65,0-.91-.74-1.65-1.65-1.65h-5.69s10.15-8.36,10.15-8.36c.7-.58.8-1.62.22-2.32-.58-.7-1.62-.8-2.32-.22l-10.25,8.45,1.01-5.79c.16-.9-.44-1.75-1.34-1.91h0Z"/>
</svg>