<svg width="16" height="22" viewBox="0 0 16 22" fill="none" xmlns="http://www.w3.org/2000/svg">
<path fill-rule="evenodd" clip-rule="evenodd" d="M10.7937 0.000994009C12.2248 0.000994009 13.3144 1.17103 13.4111 2.57864H13.3707C13.3904 2.57864 13.4013 2.59853 13.42 2.59952C13.422 2.6194 13.4407 2.63034 13.4417 2.65022L13.4398 2.61046C14.1257 2.65718 14.7613 2.91862 15.2213 3.3749C15.4678 3.61913 15.6636 3.91032 15.7973 4.23152C15.931 4.55271 15.9999 4.89749 16 5.24576C16 5.9615 15.7266 6.58181 15.2637 7.01324C14.8008 7.44467 14.1879 7.70611 13.4802 7.89698C13.343 7.93376 13.0933 8.0103 12.9216 8.06001C13.0933 8.10971 13.343 8.18526 13.4802 8.22303C14.1879 8.4139 14.8008 8.67435 15.2637 9.10578C15.7266 9.53721 16.001 10.1575 16 10.8733C15.999 12.3147 14.8373 13.4121 13.4398 13.5096L13.4417 13.4688C13.4417 13.4877 13.422 13.4986 13.421 13.5185C13.4013 13.5185 13.3904 13.5404 13.3707 13.5404H13.4111C13.3144 14.948 12.2248 16.118 10.7937 16.119C10.083 16.119 9.46715 15.8437 9.0388 15.3774C8.76935 15.0832 8.57097 14.7243 8.41108 14.3247V16.4858L8.40516 16.456C8.41006 16.4832 8.4127 16.5108 8.41305 16.5385C8.41201 17.1253 8.52596 17.7065 8.74838 18.2489C8.97079 18.7913 9.29729 19.2841 9.70916 19.6991C10.121 20.1141 10.6102 20.4432 11.1486 20.6674C11.6869 20.8917 12.264 21.0067 12.8466 21.0059C12.9775 21.0059 13.103 21.0583 13.1955 21.1515C13.2881 21.2447 13.3401 21.3711 13.3401 21.503C13.3401 21.6348 13.2881 21.7612 13.1955 21.8544C13.103 21.9476 12.9775 22 12.8466 22C9.88168 22 7.46752 19.5854 7.42903 16.6081V16.6041C7.42538 16.5785 7.42373 16.5525 7.42409 16.5266V14.6895C7.29381 14.943 7.14576 15.1766 6.96021 15.3774C6.53285 15.8437 5.91697 16.119 5.20634 16.119C3.77521 16.119 2.68558 14.948 2.58886 13.5404H2.62932C2.60958 13.5404 2.59873 13.5205 2.57998 13.5195C2.578 13.4996 2.55925 13.4887 2.55826 13.4688L2.56024 13.5096C1.16267 13.4121 0.000987053 12.3147 0 10.8733C0 10.1575 0.273394 9.53721 0.736289 9.10578C1.19918 8.67435 1.8121 8.4139 2.51977 8.22303C2.65795 8.18625 2.90667 8.10872 3.0784 8.06001C2.90667 8.0103 2.65696 7.93376 2.51977 7.89598C1.8121 7.70512 1.19918 7.44467 0.736289 7.01324C0.273394 6.58181 0 5.9615 0 5.24576C0.000987053 3.80435 1.16267 2.70688 2.56024 2.60946L2.55826 2.65022C2.55826 2.63034 2.578 2.6204 2.57899 2.60052C2.59873 2.60052 2.61057 2.57964 2.62932 2.57864H2.58985C2.68558 1.17103 3.77521 0.000994081 5.20634 0C5.91697 0 6.53285 0.27536 6.9612 0.741584C7.38955 1.20781 7.64814 1.82513 7.83764 2.53789C7.87514 2.67706 7.95114 2.92956 8.00049 3.10253C8.04984 2.92856 8.12485 2.67706 8.16236 2.53789C8.35186 1.82513 8.61045 1.20781 9.0388 0.741584C9.46715 0.27536 10.083 0.000994009 10.7937 0.000994009ZM10.7937 0.995075C10.31 0.994081 10.0248 1.13325 9.76423 1.41756C9.50268 1.70187 9.28258 2.17008 9.11578 2.79635C8.96379 3.36894 8.70915 4.22186 8.47424 5.03104C8.44407 5.13389 8.38167 5.22415 8.29638 5.28834C8.21108 5.35253 8.10746 5.38722 8.00099 5.38722C7.89451 5.38722 7.79089 5.35253 7.70559 5.28834C7.6203 5.22415 7.5579 5.13389 7.52773 5.03104C7.29282 4.22286 7.0372 3.37093 6.88421 2.79635C6.71643 2.17008 6.49732 1.70187 6.23576 1.41756C5.9752 1.13325 5.68996 0.994081 5.20634 0.994081C4.27857 0.994081 3.58176 1.7297 3.54327 2.68899L3.52945 3.07668C3.52483 3.20184 3.47345 3.32062 3.38562 3.40927C3.29778 3.49792 3.17995 3.54991 3.0557 3.55483L2.67078 3.56875C1.71834 3.60752 0.98797 4.30934 0.986983 5.24477C0.986983 5.73088 1.12516 6.01816 1.40744 6.2816C1.68972 6.54403 2.1536 6.76571 2.77638 6.93371C3.34587 7.0878 4.19271 7.34327 4.99513 7.57987C5.09803 7.60969 5.18851 7.67242 5.25291 7.75858C5.31732 7.84475 5.35214 7.94967 5.35214 8.05752C5.35214 8.16537 5.31732 8.27029 5.25291 8.35646C5.18851 8.44262 5.09803 8.50535 4.99513 8.53518C4.19172 8.77177 3.3439 9.02824 2.77441 9.18133C2.15261 9.35032 1.68873 9.57101 1.40744 9.83444C1.12516 10.0969 0.986983 10.3842 0.986983 10.8713C0.986983 11.8057 1.71735 12.5075 2.66979 12.5463L3.05472 12.5602C3.17898 12.5649 3.29691 12.6166 3.38493 12.7051C3.47295 12.7935 3.52457 12.9122 3.52945 13.0374L3.54327 13.4261C3.58275 14.3853 4.27759 15.12 5.20634 15.121C5.68996 15.121 5.9752 14.9818 6.23576 14.6975C6.49732 14.4132 6.71741 13.946 6.88421 13.3197C7.0372 12.7451 7.29282 11.8922 7.52773 11.085C7.5579 10.9821 7.6203 10.8919 7.70559 10.8277C7.79089 10.7635 7.89451 10.7288 8.00099 10.7288C8.10746 10.7288 8.21108 10.7635 8.29638 10.8277C8.38167 10.8919 8.44407 10.9821 8.47424 11.085C8.70915 11.8932 8.96379 12.7451 9.11578 13.3197C9.28357 13.946 9.50268 14.4132 9.76423 14.6975C10.0248 14.9818 10.31 15.121 10.7937 15.121C11.7214 15.121 12.4182 14.3853 12.4567 13.4261L12.4725 13.0384C12.4771 12.9132 12.5285 12.7944 12.6164 12.7058C12.7042 12.6171 12.822 12.5651 12.9463 12.5602L13.3302 12.5463H13.3322C14.2836 12.5065 15.012 11.8057 15.013 10.8713C15.013 10.3842 14.8748 10.0969 14.5926 9.83444C14.3103 9.57101 13.8474 9.34933 13.2256 9.18133C12.6571 9.02824 11.8112 8.77177 11.0108 8.53518C10.9082 8.50528 10.818 8.44268 10.7538 8.35678C10.6896 8.27088 10.6547 8.16631 10.6545 8.05876C10.6543 7.95122 10.6887 7.8465 10.7526 7.76033C10.8165 7.67416 10.9064 7.61119 11.0088 7.58086C11.8093 7.34427 12.6571 7.0868 13.2256 6.93371C13.8474 6.76571 14.3113 6.54403 14.5926 6.2816C14.8748 6.01717 15.013 5.72988 15.013 5.24477C15.013 4.77656 14.8314 4.38091 14.5294 4.0817C14.2284 3.78347 13.8069 3.58863 13.3322 3.56875L12.9473 3.55483C12.823 3.55017 12.7051 3.49843 12.617 3.40996C12.529 3.32149 12.4774 3.20282 12.4725 3.07767L12.4567 2.68998C12.4182 1.73069 11.7224 0.996069 10.7937 0.995075Z" fill="#1C752C"/>
</svg>
