<svg width="23" height="23" viewBox="0 0 23 23" fill="none" xmlns="http://www.w3.org/2000/svg">
<path d="M6.13415 2.20518C11.2599 -0.754155 17.8368 1.00814 20.7962 6.13385C23.7555 11.2596 21.9932 17.8365 16.8675 20.7959C11.7418 23.7552 5.16482 21.9929 2.20548 16.8672C-0.753851 11.7415 1.00844 5.16451 6.13415 2.20518ZM5.16914 7.87329C5.26114 8.03264 5.37783 8.18363 5.50711 8.31556C5.44514 8.35133 5.38386 8.39852 5.32445 8.43872L5.02857 8.62135C4.84079 8.73567 4.65301 8.84999 4.45825 8.96243L4.37415 9.01099C3.91824 9.27421 3.90584 9.90696 4.34215 10.6525C4.50315 10.9313 4.67844 11.1429 4.86357 11.2898C4.71094 11.6081 4.81919 12 4.9613 12.3075L4.61161 12.5094L3.83582 12.975C3.38689 13.2401 3.36801 13.8412 3.78338 14.5811C4.20897 15.3387 4.76383 15.6557 5.22741 15.4058C5.75551 15.1245 6.31835 14.8113 6.98485 14.4324C7.1301 14.4489 7.27704 14.4172 7.40098 14.3456L7.41869 14.3354L7.42754 14.3303L7.43196 14.3277C7.49722 14.4612 7.57133 14.5896 7.65174 14.7084C6.91857 15.35 6.2392 15.9725 5.59218 16.5998C5.41038 16.7756 5.24141 17.1269 5.47575 17.7883C5.63493 18.2276 6.06751 18.9871 6.69601 19.0432C7.43486 19.1065 8.03178 18.9035 8.55427 18.6432C8.58188 18.7217 8.61648 18.802 8.65362 18.8868C8.98128 19.577 9.57097 20.169 10.1507 19.9465C10.1772 19.9311 10.2089 19.9246 10.238 19.9137C10.4098 20.3339 10.7115 20.744 10.9983 20.9443C11.3907 21.2253 11.711 21.1054 11.8507 21.0306L16.289 18.4445L20.6033 15.93C20.7804 15.8278 20.8981 15.6536 20.9384 15.4474C21.0024 15.139 20.8841 14.7706 20.7305 14.4638L20.9253 14.3513C21.3805 14.0767 21.386 13.4421 20.9471 12.6921C20.4341 11.8139 19.872 11.7194 19.5179 11.9238L18.1988 12.6854L17.4729 13.1045L17.4422 13.0514C17.4572 12.9955 17.4689 12.9238 17.4693 12.8528L17.6419 12.7531L17.8898 12.61L18.1376 12.4669C18.9521 11.9967 19.7665 11.5265 20.5784 11.0518C21.0343 10.7886 21.0442 10.1514 20.6097 9.39895C20.0986 8.51368 19.5295 8.41731 19.1754 8.62176L18.9585 8.74698C18.7578 8.37891 18.4647 8.03471 18.1629 7.89024C18.0238 7.82302 17.8804 7.79957 17.7416 7.81477C17.3562 7.53564 17.0611 7.61747 16.8992 7.70504L16.731 7.80215L15.6692 8.38569C15.579 7.91252 15.2364 7.4316 15.0497 7.22069C14.5343 6.64481 14.1239 6.75188 13.9247 6.86688L13.9115 6.87454L13.9026 6.87965L12.8064 7.57746C12.7206 7.52078 12.6424 7.47739 12.5631 7.45238C12.7602 7.30316 12.9555 7.16091 13.1533 7.0231C13.3574 6.87574 13.6467 6.50803 13.288 5.6823C13.2425 5.57283 12.8687 4.76176 12.3074 4.56646C11.7734 3.94819 11.3108 4.13853 11.1736 4.21776L10.4521 4.63431L10.0556 4.85733C9.83208 4.49063 9.51798 4.14081 9.21758 4.01916C9.08611 3.96523 8.94784 3.95063 8.82303 3.96957C8.65779 3.73447 8.43227 3.48696 8.14719 3.39187C7.94846 3.32365 7.73869 3.33853 7.55652 3.4319L4.9938 4.79936C4.61362 4.41687 4.201 4.29508 3.86903 4.48675C3.74951 4.55575 3.59103 4.70036 3.53204 4.9764L3.36134 5.79497L3.30609 6.05704C3.17381 6.67638 3.73156 7.49931 4.16791 7.82576C4.57309 8.12889 4.88143 8.0394 5.03006 7.95949L5.16727 7.88027M5.8786 1.76254C0.500582 4.86754 -1.34215 11.7447 1.76285 17.1227C4.86785 22.5008 11.745 24.3435 17.123 21.2385C22.5011 18.1335 24.3438 11.2563 21.2388 5.8783C18.1338 0.500278 11.2566 -1.34246 5.8786 1.76254ZM6.27959 8.09974C6.00958 8.25563 5.57655 7.67938 5.40186 7.17236C5.19756 7.27851 4.99582 7.38908 4.79152 7.49523C4.50312 7.64993 3.70302 6.64232 3.80604 6.14611C3.88306 5.78884 3.95753 5.42715 4.03455 5.06989C4.04815 4.99122 4.08406 4.94098 4.1239 4.91798C4.2921 4.82086 4.6312 5.09132 4.86732 5.43895C5.84572 4.91538 6.82226 4.39879 7.80067 3.87522C8.0448 3.74607 8.41188 4.17743 8.61551 4.63235C8.69518 4.58635 8.77928 4.53779 8.85896 4.49179C9.11569 4.34357 9.68123 5.06757 9.83056 5.57154C10.3617 5.26487 10.8954 4.96263 11.4292 4.66039C11.5929 4.56584 11.8334 4.75749 12.0338 5.04315C12.4366 4.96401 13.2118 6.35781 12.863 6.61231C12.1274 7.13734 11.4148 7.7022 10.7245 8.29549C10.8099 8.38197 10.894 8.48683 10.9674 8.60379C11.3835 8.36356 11.8098 8.14105 12.2419 7.93879C12.3779 7.87796 12.5782 8.0102 12.7605 8.22367C13.2346 7.92042 13.7087 7.61718 14.1829 7.31394C14.1829 7.31394 14.1829 7.31394 14.1873 7.31138C14.5237 7.11716 15.3949 8.43192 15.1391 8.78618C14.9211 9.08321 14.6954 9.36696 14.4671 9.64629C15.3626 9.15288 16.2555 8.65505 17.151 8.16164C17.2705 8.09264 17.4543 8.21671 17.6378 8.41179C17.6732 8.39135 17.7086 8.3709 17.744 8.35046C18.0324 8.19576 18.6026 8.95841 18.7102 9.49236C18.9536 9.3518 19.1926 9.2138 19.4361 9.07325C19.8345 8.84325 20.7238 10.3836 20.328 10.618C19.5161 11.0927 18.7016 11.5629 17.8916 12.0306C17.7278 12.1251 17.5596 12.2222 17.3959 12.3168C17.2321 12.4114 17.0816 12.4982 16.9267 12.5877C16.9807 12.7631 16.9896 12.9114 16.9145 12.996C16.8931 13.0202 16.8716 13.0444 16.8458 13.0711C16.8458 13.0711 16.8458 13.0711 16.8413 13.0737C16.7493 13.18 16.6521 13.2774 16.5574 13.3793C16.7111 13.5738 16.8465 13.8084 16.9166 14.0218C17.8727 13.4698 18.8243 12.9203 19.7779 12.3639C20.1762 12.1339 21.0656 13.6743 20.6698 13.9087C20.4573 14.0313 20.243 14.161 20.033 14.2881C20.3513 14.7064 20.5982 15.3487 20.3547 15.4893C17.4366 17.1918 14.5184 18.8943 11.6047 20.5942C11.2518 20.7803 10.5482 19.6638 10.6216 19.2083C10.4115 19.2942 10.1995 19.3871 9.9869 19.4685C9.5616 19.6315 8.69664 18.1538 9.08616 17.9289C9.08616 17.9289 9.09058 17.9263 9.09501 17.9238C9.69462 17.613 10.2866 17.2889 10.8708 16.9516C10.8427 16.9029 10.8172 16.8586 10.7891 16.8099C10.2022 17.1429 9.6154 17.4758 9.02856 17.8087C8.34878 18.1952 7.6799 18.6109 6.75459 18.5314C6.25295 18.4905 5.67872 17.2403 5.96469 16.969C6.75691 16.2047 7.56702 15.4714 8.3899 14.7603C8.07498 14.5112 7.74445 13.8876 7.75047 13.53C7.55639 13.6539 7.36232 13.7777 7.16824 13.9016C7.16824 13.9016 7.16382 13.9042 7.15939 13.9067C7.08857 13.9476 7.0099 13.934 6.92474 13.8887C6.28735 14.2567 5.64484 14.6159 4.9991 14.9592C4.59306 15.1759 3.71139 13.6488 4.10721 13.4144C4.62696 13.1084 5.14859 12.7955 5.66834 12.4895C5.4106 12.1248 5.21957 11.6508 5.36203 11.4683C5.51708 11.2666 5.67725 11.0738 5.83742 10.881C5.80644 10.8989 5.7729 10.9123 5.73936 10.9258C5.70837 10.9437 5.66716 10.9439 5.62783 10.9371C5.59684 10.955 5.57029 10.9703 5.54373 10.9856C5.14536 11.2156 4.25602 9.67527 4.65184 9.44084C4.6784 9.42551 4.70495 9.41018 4.73151 9.39484C5.02365 9.22618 5.31255 9.04167 5.60213 8.86858C5.8752 8.68732 6.14571 8.50163 6.4169 8.32735C6.36835 8.24325 6.33818 8.16034 6.30801 8.07742C6.30359 8.07998 6.29916 8.08254 6.29474 8.08509L6.27959 8.09974Z" fill="#1C752C"/>
<path d="M5.16914 7.87329C5.26114 8.03264 5.37783 8.18363 5.50711 8.31556C5.44514 8.35133 5.38386 8.39852 5.32445 8.43872L5.02857 8.62135C4.84079 8.73567 4.65301 8.84999 4.45825 8.96243L4.37415 9.01099C3.91824 9.27421 3.90584 9.90696 4.34215 10.6525C4.50315 10.9313 4.67844 11.1429 4.86357 11.2898C4.71094 11.6081 4.81919 12 4.9613 12.3075L4.61161 12.5094L3.83582 12.975C3.38689 13.2401 3.36801 13.8412 3.78338 14.5811C4.20897 15.3387 4.76383 15.6557 5.22741 15.4058C5.75551 15.1245 6.31835 14.8113 6.98485 14.4324C7.1301 14.4489 7.27704 14.4172 7.40098 14.3456L7.41869 14.3354L7.42754 14.3303L7.43196 14.3277C7.49722 14.4612 7.57133 14.5896 7.65174 14.7084C6.91857 15.35 6.2392 15.9725 5.59218 16.5998C5.41038 16.7756 5.24141 17.1269 5.47575 17.7883C5.63493 18.2276 6.06751 18.9871 6.69601 19.0432C7.43486 19.1065 8.03178 18.9035 8.55427 18.6432C8.58188 18.7217 8.61647 18.802 8.65362 18.8868C8.98128 19.577 9.57097 20.169 10.1507 19.9465C10.1772 19.9311 10.2089 19.9246 10.238 19.9137C10.4098 20.3339 10.7115 20.744 10.9983 20.9443C11.3907 21.2253 11.711 21.1054 11.8507 21.0306L16.289 18.4445L20.6033 15.93C20.7804 15.8278 20.8981 15.6536 20.9384 15.4474C21.0024 15.139 20.8841 14.7706 20.7305 14.4638L20.9253 14.3513C21.3805 14.0767 21.386 13.4421 20.9471 12.6921C20.4341 11.8139 19.872 11.7194 19.5179 11.9238L18.1988 12.6854L17.4729 13.1045L17.4422 13.0514C17.4572 12.9955 17.4689 12.9238 17.4693 12.8528L17.6419 12.7531L17.8898 12.61L18.1376 12.4669C18.9521 11.9967 19.7665 11.5265 20.5784 11.0518C21.0343 10.7886 21.0442 10.1514 20.6097 9.39895C20.0986 8.51368 19.5295 8.41731 19.1754 8.62176L18.9585 8.74698C18.7578 8.37891 18.4647 8.03471 18.1629 7.89024C18.0238 7.82302 17.8804 7.79957 17.7416 7.81477C17.3562 7.53564 17.0611 7.61747 16.8992 7.70504L16.731 7.80215L15.6692 8.38569C15.579 7.91252 15.2364 7.4316 15.0497 7.22069C14.5343 6.64481 14.1239 6.75188 13.9247 6.86688L13.9115 6.87454L13.9026 6.87965L12.8064 7.57746C12.7206 7.52078 12.6424 7.47739 12.5631 7.45238C12.7602 7.30316 12.9555 7.16091 13.1533 7.0231C13.3574 6.87574 13.6467 6.50803 13.288 5.6823C13.2425 5.57283 12.8687 4.76176 12.3074 4.56646C11.7734 3.94819 11.3108 4.13853 11.1736 4.21776L10.4521 4.63431L10.0556 4.85733C9.83208 4.49063 9.51798 4.14081 9.21758 4.01916C9.08611 3.96523 8.94784 3.95063 8.82303 3.96957C8.65779 3.73447 8.43227 3.48696 8.14719 3.39187C7.94846 3.32365 7.73869 3.33853 7.55652 3.4319L4.9938 4.79936C4.61362 4.41687 4.201 4.29508 3.86903 4.48675C3.74951 4.55575 3.59103 4.70036 3.53204 4.9764L3.36134 5.79497L3.30609 6.05704C3.17381 6.67638 3.73156 7.49931 4.16791 7.82576C4.57309 8.12889 4.88143 8.0394 5.03006 7.95949L5.16727 7.88027M6.13415 2.20518C11.2599 -0.754154 17.8368 1.00814 20.7962 6.13385C23.7555 11.2596 21.9932 17.8365 16.8675 20.7959C11.7418 23.7552 5.16482 21.9929 2.20548 16.8672C-0.753851 11.7415 1.00844 5.16451 6.13415 2.20518ZM5.8786 1.76254C0.500582 4.86754 -1.34215 11.7447 1.76285 17.1227C4.86785 22.5008 11.745 24.3435 17.123 21.2385C22.5011 18.1335 24.3438 11.2563 21.2388 5.8783C18.1338 0.500278 11.2566 -1.34246 5.8786 1.76254ZM6.27959 8.09974C6.00958 8.25563 5.57655 7.67938 5.40186 7.17236C5.19756 7.27851 4.99582 7.38908 4.79152 7.49523C4.50312 7.64993 3.70302 6.64232 3.80604 6.14611C3.88306 5.78884 3.95753 5.42715 4.03455 5.06989C4.04815 4.99122 4.08406 4.94098 4.1239 4.91798C4.2921 4.82086 4.6312 5.09132 4.86732 5.43895C5.84572 4.91538 6.82226 4.39879 7.80067 3.87522C8.0448 3.74607 8.41188 4.17743 8.61551 4.63235C8.69518 4.58635 8.77928 4.53779 8.85896 4.49179C9.11569 4.34357 9.68124 5.06757 9.83056 5.57154C10.3617 5.26487 10.8954 4.96263 11.4292 4.66039C11.5929 4.56584 11.8334 4.75749 12.0338 5.04315C12.4366 4.96401 13.2118 6.35781 12.863 6.61231C12.1274 7.13734 11.4148 7.7022 10.7245 8.29549C10.8099 8.38197 10.894 8.48683 10.9674 8.60379C11.3835 8.36356 11.8098 8.14105 12.2419 7.93879C12.3779 7.87796 12.5782 8.0102 12.7605 8.22367C13.2346 7.92042 13.7087 7.61718 14.1829 7.31394C14.1829 7.31394 14.1829 7.31394 14.1873 7.31138C14.5237 7.11716 15.3949 8.43192 15.1391 8.78618C14.9211 9.08321 14.6954 9.36696 14.4671 9.64629C15.3626 9.15288 16.2555 8.65505 17.151 8.16164C17.2705 8.09264 17.4543 8.21671 17.6378 8.41179C17.6732 8.39135 17.7086 8.3709 17.744 8.35046C18.0324 8.19576 18.6025 8.95841 18.7102 9.49236C18.9536 9.3518 19.1926 9.2138 19.4361 9.07325C19.8345 8.84325 20.7238 10.3836 20.328 10.618C19.5161 11.0927 18.7016 11.5629 17.8916 12.0306C17.7278 12.1251 17.5596 12.2222 17.3959 12.3168C17.2321 12.4114 17.0816 12.4982 16.9267 12.5877C16.9807 12.7631 16.9896 12.9114 16.9145 12.996C16.8931 13.0202 16.8716 13.0444 16.8458 13.0711C16.8458 13.0711 16.8458 13.0711 16.8413 13.0737C16.7493 13.18 16.6521 13.2774 16.5574 13.3793C16.7111 13.5738 16.8465 13.8084 16.9166 14.0218C17.8727 13.4698 18.8243 12.9203 19.7779 12.3639C20.1762 12.1339 21.0656 13.6743 20.6698 13.9087C20.4573 14.0313 20.243 14.161 20.033 14.2881C20.3513 14.7064 20.5982 15.3487 20.3547 15.4893C17.4366 17.1918 14.5184 18.8943 11.6047 20.5942C11.2518 20.7803 10.5482 19.6638 10.6216 19.2083C10.4115 19.2942 10.1995 19.3871 9.9869 19.4685C9.5616 19.6315 8.69664 18.1538 9.08616 17.9289C9.08616 17.9289 9.09058 17.9263 9.09501 17.9238C9.69462 17.613 10.2866 17.2889 10.8708 16.9516C10.8427 16.9029 10.8172 16.8586 10.7891 16.8099C10.2022 17.1429 9.6154 17.4758 9.02856 17.8087C8.34878 18.1952 7.6799 18.6109 6.75459 18.5314C6.25295 18.4905 5.67872 17.2403 5.96469 16.969C6.75691 16.2047 7.56702 15.4714 8.3899 14.7603C8.07499 14.5112 7.74445 13.8876 7.75047 13.53C7.55639 13.6539 7.36232 13.7777 7.16824 13.9016C7.16824 13.9016 7.16381 13.9042 7.15939 13.9067C7.08857 13.9476 7.0099 13.934 6.92474 13.8887C6.28735 14.2567 5.64484 14.6159 4.9991 14.9592C4.59306 15.1759 3.71139 13.6488 4.10721 13.4144C4.62696 13.1084 5.14859 12.7955 5.66834 12.4895C5.4106 12.1248 5.21957 11.6508 5.36203 11.4683C5.51708 11.2666 5.67725 11.0738 5.83742 10.881C5.80643 10.8989 5.7729 10.9123 5.73936 10.9258C5.70837 10.9437 5.66716 10.9439 5.62783 10.9371C5.59684 10.955 5.57029 10.9703 5.54373 10.9856C5.14536 11.2156 4.25602 9.67527 4.65184 9.44084C4.6784 9.42551 4.70495 9.41018 4.73151 9.39484C5.02365 9.22618 5.31255 9.04167 5.60213 8.86858C5.8752 8.68732 6.14571 8.50163 6.4169 8.32735C6.36835 8.24325 6.33818 8.16034 6.30801 8.07742C6.30359 8.07998 6.29916 8.08254 6.29474 8.08509L6.27959 8.09974Z" stroke="#1C752C" stroke-width="0.5"/>
</svg>
