<?xml version="1.0" encoding="utf-8"?>
<!-- Generator: Adobe Illustrator 21.1.0, SVG Export Plug-In . SVG Version: 6.00 Build 0)  -->
<svg version="1.0" id="Capa_1" xmlns="http://www.w3.org/2000/svg" xmlns:xlink="http://www.w3.org/1999/xlink" x="0px" y="0px"
	 viewBox="0 0 425 425" style="enable-background:new 0 0 425 425;" xml:space="preserve">
<style type="text/css">
	.st0{clip-path:url(#SVGID_2_);fill:none;stroke:#666;stroke-width:15;}
	.st1{fill:none;stroke:#666;stroke-width:20.0021;}
	.st2{fill:#666;}
</style>
<g>
	<g>
		<defs>
			<rect id="SVGID_1_" x="-0.5" y="2" width="425" height="425"/>
		</defs>
		<clipPath id="SVGID_2_">
			<use xlink:href="#SVGID_1_"  style="overflow:visible;"/>
		</clipPath>
		<path class="st0" d="M212,408.4c107.1,0,193.9-86.8,193.9-193.9S319.1,20.6,212,20.6c-107.1,0-193.9,86.8-193.9,193.9
			S104.9,408.4,212,408.4L212,408.4z"/>
	</g>
	<path class="st1" d="M178,187.3h37.4v125.9 M178,313.2h72.2"/>
	<path class="st2" d="M215.4,136.3c9.4,0,17-7.6,17-17c0-9.4-7.6-17-17-17c-9.4,0-17,7.6-17,17C198.4,128.6,206,136.3,215.4,136.3
		L215.4,136.3z"/>
</g>
</svg>
