<?xml version="1.0" encoding="utf-8"?>
<!-- Generator: Adobe Illustrator 21.1.0, SVG Export Plug-In . SVG Version: 6.00 Build 0)  -->
<svg version="1.0" id="Capa_1" xmlns="http://www.w3.org/2000/svg" xmlns:xlink="http://www.w3.org/1999/xlink" x="0px" y="0px"
	 viewBox="0 0 425 425" style="enable-background:new 0 0 425 425;" xml:space="preserve">
<style type="text/css">
	.st0{clip-path:url(#SVGID_2_);fill:none;stroke:#666;stroke-width:15;stroke-linecap:round;stroke-miterlimit:10;}
</style>
<g>
	<g>
		<defs>
			<rect id="SVGID_1_" x="-0.5" y="0.5" width="425" height="425"/>
		</defs>
		<clipPath id="SVGID_2_">
			<use xlink:href="#SVGID_1_"  style="overflow:visible;"/>
		</clipPath>
		<path class="st0" d="M365.9,281.8v-22.9c0-12.7-10.3-22.9-22.9-22.9l0,0c-12.7,0-22.9,10.3-22.9,22.9v22.9 M320,281.8v-45.9
			c0-12.7-10.3-22.9-22.9-22.9l0,0c-12.7,0-22.9,10.3-22.9,22.9v45.9 M274.1,270.4V167.1c0-12.7-10.3-22.9-22.9-22.9l0,0
			c-12.7,0-22.9,10.3-22.9,22.9v137.7 M400.3,396.5c6.6-13.3,11.5-26.8,11.5-42.6v-72.1c0-12.7-10.3-22.9-22.9-22.9l0,0
			c-12.7,0-22.9,10.3-22.9,22.9v11.5 M193.1,389.4c-6.9-13.6-10.8-29.1-10.8-45.3v-50.7c0-12.7,10.3-22.9,22.9-22.9l0,0
			c12.7,0,22.9,10.3,22.9,22.9v45.9 M136.5,258.9H12.2V29.5h399.6V213 M67.6,75.3h22.9 M125,75.3h22.9 M182.4,75.3h22.9 M239.7,75.3
			h22.9 M297.1,75.3H320 M308.5,167.1H320 M354.4,75.3h22.9 M354.4,167.1h22.9 M44.7,121.2h22.9 M102,121.2H125 M159.4,121.2h22.9
			 M67.6,167.1h22.9 M125,167.1h22.9 M182.4,167.1h11.5 M44.7,213h22.9 M102,213H125 M159.4,213h22.9 M216.8,121.2h22.9
			 M274.1,121.2h22.9 M331.5,121.2h22.9"/>
	</g>
</g>
</svg>
