<svg width="22" height="16" viewBox="0 0 22 16" fill="none" xmlns="http://www.w3.org/2000/svg">
<path d="M0.520098 6.73325L7.76209 0.476597C8.0914 0.177244 8.54655 0.00542109 9.02456 0.000126607C9.50241 -0.00517636 9.96262 0.1563 10.3007 0.448223C10.6387 0.740021 10.8262 1.13749 10.8204 1.55033C10.8146 1.96316 10.6161 2.35665 10.2699 2.64129L5.98917 6.3342H20.2268C20.8603 6.3342 21.4457 6.62626 21.7625 7.1002C22.0792 7.57416 22.0792 8.15801 21.7625 8.63197C21.4457 9.10593 20.8603 9.39798 20.2268 9.39798H6.02884L10.2699 13.0681C10.6992 13.4582 10.8598 14.0142 10.6933 14.5328C10.5268 15.0514 10.0575 15.4565 9.45707 15.5999C8.85678 15.7432 8.21319 15.6039 7.76205 15.2328L0.520056 8.97615C0.186296 8.68952 -0.000612259 8.29937 0.000921249 7.89288C-0.000307083 7.88016 -0.000307083 7.86743 0.000921249 7.85483C-0.000154495 7.84224 -0.000154495 7.82951 0.000921249 7.81678C0.00107384 7.41057 0.187824 7.02095 0.520056 6.73352L0.520098 6.73325Z" fill="#1C752C"/>
</svg>
