<?xml version="1.0" encoding="utf-8"?>
<!-- Generator: Adobe Illustrator 28.2.0, SVG Export Plug-In . SVG Version: 6.00 Build 0)  -->
<svg version="1.1" id="Capa_1" xmlns="http://www.w3.org/2000/svg" xmlns:xlink="http://www.w3.org/1999/xlink" x="0px" y="0px"
     viewBox="0 0 200 200" style="enable-background:new 0 0 200 200;" xml:space="preserve">
<style type="text/css">
	.st0{fill:#999;}
</style>
    <g id="container">
</g>
    <g>
	<path class="st0" d="M17.1,186.2c-0.7,0-1.3-0.3-1.7-0.9c-0.6-0.9-0.3-2.2,0.6-2.8c12.5-8.2,28.7-20.5,35.2-32.8
		c0.5-1,1.7-1.4,2.7-0.8c1,0.5,1.3,1.7,0.8,2.7c-6.9,13-23.7,25.8-36.6,34.3C17.9,186.1,17.5,186.2,17.1,186.2z"/>
</g>
    <g>
	<path class="st0" d="M92.5,81.4c-0.6,0-1.3-0.3-1.6-0.9c-0.1-0.1-7-9.7-16.2-10.7c-4.7-0.5-9.3,1.4-13.7,5.6
		c-0.8,0.8-2.1,0.7-2.8-0.1c-0.8-0.8-0.7-2.1,0.1-2.8c4.2-4,8.6-6.2,13.2-6.7c-2.9-7.2-4.8-19.7,4.9-25.1c3.7-2,7.4-2.3,11.1-0.7
		c7.6,3.3,12.3,13.3,12.9,15.8c0.1,0.3,0.2,0.7,0.4,1.2c1.1,3.4,3.8,11.3,0.7,17.5c-1.6,3.2-4.4,5.4-8.3,6.8
		C92.9,81.4,92.7,81.4,92.5,81.4z M75.9,66c8.6,1.2,15,8.1,17.3,11c2.2-1,3.8-2.4,4.7-4.2C100.2,68,98,61.2,97,58.3
		c-0.2-0.6-0.4-1.1-0.5-1.5c-0.4-1.6-4.6-10.4-10.6-13.1c-2.5-1.1-5-0.9-7.5,0.5C68.5,49.7,75.5,65.2,75.9,66z"/>
</g>
    <g>
	<path class="st0" d="M111.5,69c-2.9,0-6.6-1-11.4-4c-0.9-0.6-1.2-1.8-0.6-2.8c0.6-0.9,1.8-1.2,2.8-0.6c10.2,6.4,13.3,2.2,14.7,0.2
		c3.2-6.4-0.4-13.1-2.1-15.8c-4.2-6.5-9.4-7.8-12.9-8.2c-2.1-0.1-3.8,0.4-4.9,1.5c-2.4,2.4-2.2,6.7-2.2,6.8c0.1,1.1-0.8,2-1.9,2.1
		c-1.1,0.1-2-0.8-2.1-1.9c0-0.3-0.3-6.2,3.3-9.8c2-2,4.8-2.9,8.1-2.7c6.9,0.8,12.1,4,15.9,10c2.1,3.2,6.5,11.6,2.2,19.9
		c-0.1,0.1-0.1,0.2-0.2,0.3l-0.1,0.1C119.1,65.7,116.7,69,111.5,69z"/>
</g>
    <g>
	<path class="st0" d="M70.9,39.8c-0.5,0-1-0.2-1.4-0.6c-0.8-0.8-0.8-2,0-2.8c3.5-3.5,12.8-8.5,22.5-2.7c0.9,0.6,1.3,1.8,0.7,2.7
		c-0.6,0.9-1.8,1.3-2.7,0.7c-9.4-5.7-17.3,1.8-17.6,2.1C71.9,39.6,71.4,39.8,70.9,39.8z"/>
</g>
    <g>
	<path class="st0" d="M156.9,80.3c-1.6,0-2.8-0.6-3.5-1.7l0,0c-1.5-2.3,0-5.6,3.6-7.9c1.5-0.9,3-1.5,4.5-1.7
		c1.9-0.2,3.4,0.4,4.2,1.7c0.5,0.8,0.7,1.8,0.5,2.8c-0.4,1.8-1.9,3.7-4.1,5.1c-1.5,0.9-3,1.5-4.5,1.7
		C157.3,80.3,157.1,80.3,156.9,80.3z M162.1,73c-0.6,0-1.7,0.2-3,1.1c-1.3,0.9-2,1.8-2.2,2.3c0.6,0,1.7-0.2,3-1.1
		C161.2,74.4,161.8,73.5,162.1,73z"/>
</g>
    <g>
	<path class="st0" d="M92.6,72.7c-1.4,0-2.9-0.7-4-1.9c-1.2-1.2-2-3-2.3-4.9c-0.3-1.9-0.1-3.8,0.7-5.3c0.8-1.8,2.3-2.9,4-3.2l0,0
		c3.3-0.5,6.4,2.4,7,6.7c0.3,1.9,0.1,3.8-0.7,5.3c-0.8,1.8-2.3,2.9-4,3.2C93,72.7,92.8,72.7,92.6,72.7z M91.6,61.4c0,0-0.1,0-0.1,0
		l0,0c-0.5,0.1-0.8,0.7-1,1c-0.4,0.8-0.5,1.9-0.3,3c0.2,1.1,0.6,2.1,1.2,2.7c0.2,0.2,0.7,0.7,1.2,0.6c0.5-0.1,0.8-0.7,1-1
		c0.4-0.8,0.5-1.9,0.3-3C93.6,62.6,92.4,61.4,91.6,61.4z M91.2,59.4L91.2,59.4L91.2,59.4z"/>
</g>
    <g>
	<path class="st0" d="M111.4,63.2c-1.4,0-2.9-0.7-4-1.9c-1.2-1.2-2-3-2.3-4.9c-0.3-1.9-0.1-3.8,0.7-5.3c0.8-1.8,2.3-2.9,4-3.2
		c0,0,0,0,0,0c3.3-0.5,6.4,2.4,7,6.7c0.3,1.9,0.1,3.8-0.7,5.3c-0.8,1.8-2.3,2.9-4,3.2C111.8,63.2,111.6,63.2,111.4,63.2z
		 M110.3,51.9L110.3,51.9c-0.5,0.1-0.8,0.7-1,1c-0.4,0.8-0.5,1.9-0.3,3c0.2,1.1,0.6,2.1,1.2,2.7c0.2,0.2,0.7,0.7,1.2,0.6
		c0.5-0.1,0.8-0.7,1-1c0.4-0.8,0.5-1.9,0.3-3C112.4,53,111.1,51.8,110.3,51.9z"/>
</g>
    <g>
	<path class="st0" d="M89.9,125.3c-0.5,0-0.9-0.2-1.3-0.5c-7.5-6.6-27-23.7-27-23.7l2.6-3c0,0,19.5,17.1,27,23.7
		c0.8,0.7,0.9,2,0.2,2.8C91,125.1,90.4,125.3,89.9,125.3z"/>
</g>
    <g>
	<path class="st0" d="M78.4,92.1c-1,0-1.9-0.7-2-1.8c-0.1-0.6-0.6-5.8,2.7-8.9c2-1.8,4.7-2.4,8.1-1.7c1.1,0.2,1.8,1.3,1.6,2.4
		c-0.2,1.1-1.3,1.8-2.4,1.6c-2.1-0.4-3.7-0.2-4.6,0.7c-1.6,1.4-1.6,4.5-1.5,5.5c0.1,1.1-0.7,2.1-1.8,2.2
		C78.6,92.1,78.5,92.1,78.4,92.1z"/>
</g>
    <g>
	<path class="st0" d="M113.8,132.2c-0.2,0-0.4,0-0.6-0.1c-13.9-4.6-22-30.2-22.1-30.5c-0.9-3.2-4.2-9.4-9-14.2
		c-1-0.8-1.9-1.6-2.5-2.3c-0.7-0.8-0.7-2,0-2.7s1.9-0.8,2.7-0.2c0.9,0.7,1.7,1.5,2.6,2.3c3.4,2.7,8.8,6.3,13.7,9.5
		c1.3,0.8,2.5,1.6,3.7,2.4c16.8,10.1,37.1,12.6,37.3,12.6c1.1,0.1,1.9,1.1,1.8,2.2s-1.1,1.9-2.2,1.8c-0.9-0.1-21.3-2.5-39-13.2
		c-1.3-0.8-2.5-1.6-3.8-2.5c-1.3-0.9-2.6-1.7-3.9-2.6c1.2,2.3,2.1,4.4,2.5,5.8c1,3.6,8.9,24.2,19.5,27.7c1,0.3,1.6,1.5,1.3,2.5
		C115.5,131.7,114.7,132.2,113.8,132.2z"/>
</g>
    <g>
	<path class="st0" d="M127.3,131.3c-0.8,0-1.5-0.4-1.8-1.2c-0.1-0.3-11.6-25.5-30.3-23.3c-1.1,0.1-2.1-0.7-2.2-1.8s0.7-2.1,1.8-2.2
		c21.6-2.5,33.9,24.5,34.5,25.7c0.5,1,0,2.2-1,2.6C127.8,131.2,127.6,131.3,127.3,131.3z"/>
</g>
    <g>
	<path class="st0" d="M103.3,107.2c-0.4,0-0.8-0.1-1.1-0.4c-0.9-0.6-1.1-1.9-0.5-2.8c2.4-3.5,8.9-2.8,10.2-2.6
		c1.1,0.1,1.9,1.2,1.7,2.2c-0.1,1.1-1.2,1.9-2.2,1.7l0,0c-2.5-0.3-5.7,0-6.4,0.9C104.6,106.9,103.9,107.2,103.3,107.2z"/>
</g>
    <g>
	<path class="st0" d="M78.2,164.6c-5.7,0-10.2-2.1-10.3-2.2c-0.8-0.4-1.2-1.2-1.1-2l2.6-27.3c0.1-0.9,0.8-1.7,1.7-1.8
		c10.9-1.6,13.5-1.5,17.9,0.7c0.1,0,0.1,0.1,0.2,0.1c9.5,6.1,8.8,17.3,5.3,23.4c0,0,0,0.1-0.1,0.1C89.8,162.8,83.5,164.6,78.2,164.6
		z M70.9,159.4c3.5,1.3,13.7,3.9,20.1-5.8c2.6-4.5,3.2-13.3-3.9-17.9c-2.8-1.4-4.4-1.8-13.9-0.5L70.9,159.4z"/>
</g>
    <g>
	<path class="st0" d="M69.9,141.3c-0.1,0-0.2,0-0.4,0c-1.4-0.3-14.1-2.7-17.8-9.4c0,0,0-0.1,0-0.1c-0.5-1-0.5-2.1,0.1-3
		c1.2-2,4.8-2.5,6.8-2.6c1.1,0,2,0.8,2.1,1.9c0,1.1-0.8,2-1.9,2.1c-1,0-2.2,0.2-2.9,0.5c3,3.8,11.4,6.1,14.5,6.6
		c1.1,0.2,1.8,1.2,1.6,2.3C71.7,140.6,70.8,141.3,69.9,141.3z"/>
</g>
    <g>
	<path class="st0" d="M67.6,158.3c-0.1,0-0.3,0-0.4,0c-0.5-0.1-11.8-2.4-16.5-7.6c-0.2-0.2-0.3-0.4-0.4-0.6
		c-2.6-6.2,0.5-18,0.8-19.3c0.3-1.1,1.4-1.7,2.4-1.4c1.1,0.3,1.7,1.4,1.4,2.5c-0.8,3.1-2.6,12.1-1.1,16.4c3.4,3.3,11.2,5.5,14.1,6.1
		c1.1,0.2,1.8,1.3,1.6,2.4C69.4,157.6,68.6,158.3,67.6,158.3z"/>
</g>
    <g>
	<path class="st0" d="M114.9,143.6c0,0-0.1,0-0.1,0c-1.1-0.1-1.9-1-1.9-2.1c0.9-13.3-4-18.9-4.1-18.9c-0.7-0.8-0.7-2.1,0.1-2.8
		c0.8-0.7,2.1-0.7,2.8,0.1c0.3,0.3,6.2,6.7,5.1,21.9C116.8,142.8,115.9,143.6,114.9,143.6z"/>
</g>
    <g>
	<path class="st0" d="M137.3,133.7c-0.9,0-1.7-0.6-1.9-1.5c-3.1-12.7-13.5-23-13.6-23.1c-0.8-0.8-0.8-2,0-2.8c0.8-0.8,2-0.8,2.8,0
		c0.5,0.5,11.3,11.2,14.7,25c0.3,1.1-0.4,2.2-1.5,2.4C137.6,133.7,137.4,133.7,137.3,133.7z"/>
</g>
    <g>
	<path class="st0" d="M81,155.3c-2,0-3.5-1.1-3.7-1.2c-0.5-0.4-0.8-1.1-0.8-1.7l0.7-9.8c0.1-0.9,0.7-1.6,1.6-1.8
		c3.2-0.6,4.4-0.6,6.1,0.5c0.1,0,0.1,0.1,0.2,0.1c3,2.5,3.3,7,1.8,9.9c0,0,0,0.1-0.1,0.1c-1.4,2.2-3,3.5-5,3.8
		C81.7,155.3,81.3,155.3,81,155.3z M80.7,151.3c0.2,0,0.4,0,0.7,0c0.9-0.2,1.7-1.1,2.2-1.9c0.6-1.2,0.6-3.6-0.7-4.8
		c-0.3-0.2-0.5-0.2-1.6-0.1L80.7,151.3z"/>
</g>
    <g>
	<path class="st0" d="M126.1,159.1c-8.8,0-11.9-11-12.8-15.6c-3.2,0.1-9.4-1.1-16-9.3c-2.9-3.5-5-5.8-6.4-7.3
		c-0.2,1.8-0.3,4.1-0.5,6.8c-0.1,1.1-1,1.9-2.1,1.9c-1.1-0.1-2-1-1.9-2.1c0.3-6.6,0.9-10.8,0.9-11c0.1-0.7,0.5-1.2,1.1-1.5
		c0.6-0.3,1.3-0.2,1.9,0.1c0.3,0.2,3.2,2.1,10.1,10.5c7.6,9.4,13.8,7.8,14,7.7c0.6-0.2,1.2-0.1,1.7,0.3c0.5,0.3,0.8,0.8,0.9,1.4
		c0,0.1,2,14.1,9.2,14.1c2.1,0,4-1.1,5.7-3.3c3.6-4.7,5.2-13.6,3.5-19.9c-0.2-0.8,0.1-1.6,0.7-2.1c2.3-1.8,5-11.9,1.5-17.8
		c-0.4-0.7-0.4-1.5,0.1-2.1c0.4-0.6,1.2-1,2-0.9c22.6,3.3,36.4-20.5,40.6-33.5c1.2-3.8,0.9-6.6-0.8-8.7c-4.3-4.9-16.5-4.9-26.6-3.2
		c-17.2,2.9-28.2,0.8-33.2-0.7c-1-0.3-1.6-1.4-1.4-2.4c1.8-7.2-4-18-11.4-21.4c-0.3-0.2-0.6-0.4-0.8-0.7c-3-4.6-6.2-7.1-9.2-7.2
		c-3.1-0.2-5.5,2.1-6.7,3.5c-0.5,0.6-1.4,0.9-2.2,0.6c-0.7-0.2-1.1-0.8-1.3-1.5c-0.8-0.9-4.7-2.7-6.4-3.4c-0.9-0.4-1.8-0.8-2.4-1.1
		c-0.6-0.3-1.1-1-1.1-1.7c0-0.2,0-0.5,0.1-0.7C75.6,27,74,27.4,72,28c-0.8,0.2-1.7-0.1-2.2-0.8c0,0,0-0.1-0.1-0.1
		c-0.3,0.2-0.5,0.3-0.8,0.4c-1.5,0.8-3.1,1.7-4.6,2.3c-0.7,0.3-1.6,0.2-2.2-0.4c-0.3-0.3-0.5-0.6-0.5-1c-2.3,1.8-5.5,4.8-7,6.7
		c-12.1,16.6,4.6,35.5,6.5,37.6c0.7,0.7,0.7,1.9,0.1,2.6c-8.6,10.4,2.1,21.9,2.5,22.4c0.4,0.4,0.6,0.9,0.5,1.4
		c0,0.2-0.4,16.9-4.3,35.9c-0.2,1.1-1.3,1.8-2.4,1.6c-1.1-0.2-1.8-1.3-1.6-2.4c3.3-16.3,4.1-30.9,4.2-34.4c-4.5-5.1-10-16-3.2-25.7
		c-9.2-10.7-15.8-27.4-5.6-41.4c0.1-0.2,9.7-11.5,13.5-9.3c0.5,0.3,0.8,0.7,1,1.1c0.4-0.2,0.7-0.4,1.1-0.6c3.7-2.1,5.6-3.1,7-1.5
		c0.2,0.2,0.3,0.4,0.4,0.6c5.6-1.4,7.8-1.1,8.6,0.7c0.5,1.1,0.1,2.1-0.6,3c2.8,1.2,4.9,2.3,6.3,3.4c2.5-2.2,5.4-3.3,8.3-3.1
		c4.2,0.3,8.2,3.1,12,8.6c8.4,4.2,14.4,15.1,13.4,23.8c4.8,1.2,14.8,2.6,29.6,0.1c6.9-1.2,23.7-3,30.3,4.6c2.7,3.1,3.3,7.4,1.6,12.5
		c-5.9,18.3-20.7,36.6-40.3,36.6c-0.4,0-0.8,0-1.2,0c2,6.6,0.1,15.1-2.9,18.7c1.6,7.4-0.3,16.7-4.5,22.2
		C132.5,157.4,129.5,159.1,126.1,159.1z M79.4,24.2L79.4,24.2L79.4,24.2z"/>
</g>
    <g>
	<path class="st0" d="M94.9,185.2c-0.8,0-1.6-0.5-1.9-1.3c-2.8-7.2-4.8-15.4-5.9-24.6c-0.1-1.1,0.6-2.1,1.7-2.2
		c1.1-0.1,2.1,0.6,2.2,1.7c1.1,8.8,3,16.7,5.6,23.6c0.4,1-0.1,2.2-1.1,2.6C95.4,185.2,95.2,185.2,94.9,185.2z"/>
</g>
</svg>
